# xmcd
#
# Track frame offsets:
#	150
#	8227
#	30160
#	43692
#	83700
#	125620
#	149665
#	170310
#	207318
#
# Disc length: 3173 seconds
#
# Revision: 1
# Processed by: cddbd v1.5.2PL0 Copyright (c) Steve Scherf et al.
# Submitted via: audiograbber 1.83.01
#
DISCID=720c6309
DTITLE=Grateful Dead - 70-01-16 Springer's Inn, Portland OR
DYEAR=1900
DGENRE=
TTITLE0=Stage Announcements
TTITLE1=Casey Jones
TTITLE2=Mama Tried
TTITLE3=Black Peter
TTITLE4=Hard To Handle
TTITLE5=China Cat Sunflower
TTITLE6=I Know You Rider
TTITLE7=High Time
TTITLE8=Good Lovin' > Drums > Good Lovin'
EXTD=
EXTT0=
EXTT1=
EXTT2=
EXTT3=
EXTT4=
EXTT5=
EXTT6=
EXTT7=
EXTT8=
PLAYORDER=
